<svg xmlns="http://www.w3.org/2000/svg" xmlns:xlink="http://www.w3.org/1999/xlink" width="300" zoomAndPan="magnify" viewBox="0 0 375 374.999991" height="300" preserveAspectRatio="xMidYMid meet" version="1.0"><defs><g/><clipPath id="5ac9a42740"><path d="M 140.613281 183.75 L 144.578125 183.75 L 144.578125 189.007812 L 140.613281 189.007812 Z M 140.613281 183.75 " clip-rule="nonzero"/></clipPath><clipPath id="c031d76a3b"><path d="M 80.734375 183.75 L 112.984375 183.75 L 112.984375 216 L 80.734375 216 Z M 80.734375 183.75 " clip-rule="nonzero"/></clipPath></defs><g fill="#88838a" fill-opacity="1"><g transform="translate(112.880109, 216.37506)"><g><path d="M 24.425781 -28.609375 L 24.425781 -32.472656 L 3.585938 -32.472656 L 3.585938 0 L 7.910156 0 L 7.910156 -15.269531 L 23.273438 -15.269531 L 23.273438 -19.042969 L 7.910156 -19.042969 L 7.910156 -28.609375 Z M 24.425781 -28.609375 "/></g></g></g><g fill="#88838a" fill-opacity="1"><g transform="translate(137.810008, 216.37506)"><g><path d="M 6.714844 -28.242188 L 6.714844 -32.472656 L 3.171875 -32.472656 L 3.171875 -28.242188 Z M 6.714844 0 L 6.714844 -21.664062 L 3.171875 -21.664062 L 3.171875 0 Z M 6.714844 0 "/></g></g></g><g fill="#88838a" fill-opacity="1"><g transform="translate(147.3772, 216.37506)"><g><path d="M 8.003906 -18.628906 L 11.914062 -18.628906 L 11.914062 -21.664062 L 8.003906 -21.664062 L 8.003906 -28.519531 L 4.230469 -28.519531 L 4.230469 -21.664062 L 0.734375 -21.664062 L 0.734375 -18.628906 L 4.230469 -18.628906 L 4.230469 -3.542969 C 4.230469 -1.058594 4.828125 0.367188 8.417969 0.367188 C 9.84375 0.367188 11.589844 0.046875 11.914062 0 L 11.914062 -3.035156 C 10.902344 -2.667969 10.027344 -2.53125 9.613281 -2.53125 C 8.464844 -2.53125 8.003906 -3.128906 8.003906 -4.691406 Z M 8.003906 -18.628906 "/></g></g></g><g fill="#88838a" fill-opacity="1"><g transform="translate(160.808066, 216.37506)"><g><path d="M 29.164062 0 L 17.339844 -32.472656 L 12.832031 -32.472656 L 0.460938 0 L 5.058594 0 L 8.695312 -9.933594 L 21.066406 -9.933594 L 24.609375 0 Z M 19.777344 -13.570312 L 10.074219 -13.570312 L 15.042969 -27.136719 Z M 19.777344 -13.570312 "/></g></g></g><g fill="#88838a" fill-opacity="1"><g transform="translate(190.521561, 216.37506)"><g><path d="M 8.003906 -18.628906 L 11.914062 -18.628906 L 11.914062 -21.664062 L 8.003906 -21.664062 L 8.003906 -28.519531 L 4.230469 -28.519531 L 4.230469 -21.664062 L 0.734375 -21.664062 L 0.734375 -18.628906 L 4.230469 -18.628906 L 4.230469 -3.542969 C 4.230469 -1.058594 4.828125 0.367188 8.417969 0.367188 C 9.84375 0.367188 11.589844 0.046875 11.914062 0 L 11.914062 -3.035156 C 10.902344 -2.667969 10.027344 -2.53125 9.613281 -2.53125 C 8.464844 -2.53125 8.003906 -3.128906 8.003906 -4.691406 Z M 8.003906 -18.628906 "/></g></g></g><g fill="#88838a" fill-opacity="1"><g transform="translate(203.952426, 216.37506)"><g><path d="M 6.578125 0 L 6.578125 -32.472656 L 3.082031 -32.472656 L 3.082031 0 Z M 6.578125 0 "/></g></g></g><g fill="#88838a" fill-opacity="1"><g transform="translate(213.519618, 216.37506)"><g><path d="M 15.914062 -12.972656 L 12.601562 -12.742188 C 9.84375 -12.558594 6.027344 -11.960938 3.816406 -10.304688 C 1.746094 -8.738281 1.472656 -6.625 1.472656 -5.613281 C 1.472656 -1.886719 4.507812 0.597656 8.832031 0.597656 C 13.015625 0.597656 15.226562 -1.839844 16.238281 -2.945312 C 16.28125 -2.300781 16.835938 -0.921875 17.710938 -0.277344 C 18.492188 0.277344 19.824219 0.277344 20.007812 0.277344 C 20.605469 0.277344 21.25 0.230469 22.355469 -0.136719 L 22.355469 -3.21875 C 21.941406 -3.128906 21.710938 -3.035156 21.25 -3.035156 C 19.640625 -3.035156 19.59375 -4.277344 19.59375 -5.566406 L 19.59375 -13.203125 C 19.59375 -17.066406 19.410156 -19.320312 16.328125 -21.066406 C 14.535156 -22.125 12.234375 -22.355469 10.902344 -22.355469 C 3.21875 -22.355469 2.574219 -16.28125 2.574219 -15.226562 L 6.394531 -14.996094 L 6.394531 -15.316406 C 6.394531 -18.03125 8.050781 -19.550781 11.085938 -19.550781 C 15.867188 -19.550781 15.914062 -15.730469 15.914062 -13.707031 Z M 15.960938 -10.578125 L 15.960938 -8.878906 C 15.960938 -3.3125 11.589844 -2.484375 9.613281 -2.484375 C 6.714844 -2.484375 5.519531 -4.09375 5.519531 -5.703125 C 5.519531 -7.820312 7.496094 -8.738281 8.1875 -9.015625 C 9.890625 -9.75 14.257812 -10.304688 15.960938 -10.578125 Z M 15.960938 -10.578125 "/></g></g></g><g fill="#88838a" fill-opacity="1"><g transform="translate(236.517686, 216.37506)"><g><path d="M 1.425781 -6.992188 C 2.070312 -2.761719 4.507812 0.691406 11.5 0.691406 C 16.652344 0.691406 20.5625 -2.023438 20.5625 -6.164062 C 20.5625 -10.121094 17.386719 -11.5 13.339844 -12.464844 L 11.222656 -12.972656 C 7.910156 -13.753906 5.980469 -14.488281 5.980469 -16.375 C 5.980469 -17.753906 7.269531 -19.550781 10.257812 -19.550781 C 13.386719 -19.550781 15.179688 -17.984375 15.730469 -16.789062 C 15.960938 -16.28125 16.007812 -15.824219 16.054688 -14.765625 L 20.007812 -15.226562 C 19.917969 -15.867188 19.734375 -17.203125 18.859375 -18.535156 C 17.800781 -20.101562 15.316406 -22.355469 10.761719 -22.355469 C 6.855469 -22.355469 2.347656 -20.652344 2.347656 -15.914062 C 2.347656 -12.878906 4.140625 -10.761719 10.074219 -9.613281 L 12.1875 -9.199219 C 14.167969 -8.832031 16.695312 -8.371094 16.695312 -5.75 C 16.695312 -2.667969 13.476562 -2.117188 11.683594 -2.117188 C 9.890625 -2.117188 8.09375 -2.347656 6.808594 -3.773438 C 5.75 -4.921875 5.613281 -6.164062 5.613281 -7.589844 Z M 1.425781 -6.992188 "/></g></g></g><g clip-path="url(#5ac9a42740)"><path fill="#4c7abb" d="M 140.613281 183.75 L 144.578125 183.75 L 144.578125 189.007812 L 140.613281 189.007812 Z M 140.613281 183.75 " fill-opacity="1" fill-rule="nonzero"/></g><g clip-path="url(#c031d76a3b)"><path fill="#4c7abb" d="M 94.46875 189.917969 C 94.84375 190.3125 95.222656 190.707031 95.601562 191.101562 C 95.648438 191.152344 95.699219 191.207031 95.714844 191.273438 C 95.726562 191.335938 95.707031 191.402344 95.707031 191.464844 C 95.710938 191.609375 95.816406 191.726562 95.917969 191.828125 C 96.046875 191.957031 96.175781 192.085938 96.300781 192.214844 C 96.382812 192.296875 96.464844 192.386719 96.5 192.496094 C 96.542969 192.644531 96.484375 192.804688 96.503906 192.957031 C 96.515625 193.0625 96.566406 193.160156 96.613281 193.257812 C 96.882812 193.820312 97.085938 194.417969 97.214844 195.027344 C 97.246094 195.171875 97.269531 195.335938 97.191406 195.460938 C 97.121094 195.574219 96.984375 195.628906 96.878906 195.707031 C 96.769531 195.789062 96.683594 195.9375 96.761719 196.046875 C 96.792969 196.097656 96.851562 196.125 96.90625 196.148438 C 97.496094 196.390625 98.132812 196.472656 98.765625 196.554688 C 98.875 196.566406 98.988281 196.582031 99.101562 196.570312 C 99.296875 196.546875 99.484375 196.4375 99.59375 196.277344 C 100.058594 195.617188 100.714844 195.109375 101.511719 194.949219 C 102.511719 194.746094 103.570312 195.109375 104.5625 194.878906 C 104.984375 194.371094 105.558594 193.925781 106.183594 193.703125 C 106.621094 193.546875 107.109375 193.476562 107.550781 193.625 C 107.65625 193.664062 107.761719 193.714844 107.875 193.71875 C 108.007812 193.726562 108.136719 193.667969 108.257812 193.613281 C 108.398438 193.550781 108.535156 193.488281 108.675781 193.421875 C 108.496094 192.574219 108.308594 191.652344 108.339844 190.785156 C 108.347656 190.566406 108.367188 190.34375 108.355469 190.125 C 108.351562 190.003906 108.335938 189.882812 108.320312 189.761719 C 108.246094 189.253906 108.113281 188.75 107.929688 188.269531 C 107.726562 187.734375 107.457031 187.230469 107.191406 186.722656 C 107.128906 186.605469 106.921875 186.585938 106.789062 186.59375 C 106.652344 186.601562 106.523438 186.636719 106.390625 186.648438 C 105.867188 186.695312 105.390625 186.339844 104.867188 186.296875 C 104.632812 186.277344 104.398438 186.320312 104.167969 186.363281 C 104.117188 186.371094 104.0625 186.378906 104.015625 186.359375 C 103.964844 186.339844 103.929688 186.289062 103.898438 186.242188 C 103.839844 186.144531 103.789062 186.039062 103.746094 185.933594 C 103.71875 185.867188 103.695312 185.78125 103.742188 185.722656 C 103.761719 185.695312 103.796875 185.675781 103.820312 185.648438 C 103.875 185.574219 103.824219 185.464844 103.839844 185.371094 C 103.847656 185.316406 103.882812 185.265625 103.914062 185.21875 C 104.097656 184.941406 104.246094 184.640625 104.351562 184.328125 C 104.394531 184.195312 104.433594 184.054688 104.527344 183.949219 C 104.671875 183.789062 104.910156 183.746094 105.128906 183.75 C 105.582031 183.757812 106.027344 183.925781 106.371094 184.214844 C 106.464844 184.292969 106.550781 184.378906 106.640625 184.457031 C 106.71875 184.527344 106.804688 184.589844 106.886719 184.652344 C 107.085938 184.796875 107.285156 184.945312 107.480469 185.09375 C 107.632812 185.207031 107.785156 185.320312 107.933594 185.429688 C 108.125 185.574219 108.316406 185.714844 108.527344 185.832031 C 108.898438 186.035156 108.972656 186.480469 109.1875 186.84375 C 109.320312 187.066406 109.480469 187.214844 109.632812 187.425781 C 109.910156 187.808594 110.191406 188.195312 110.472656 188.582031 C 110.660156 188.835938 110.847656 189.09375 111.023438 189.355469 C 111.972656 190.769531 112.621094 192.375 112.921875 194.042969 C 112.957031 194.246094 112.855469 194.441406 112.738281 194.613281 C 112.621094 194.785156 112.460938 194.921875 112.308594 195.0625 C 111.527344 195.78125 110.839844 196.589844 110.0625 197.308594 C 109.285156 198.03125 108.398438 198.671875 107.375 198.960938 C 106.457031 199.21875 105.429688 199.199219 104.640625 199.726562 C 103.605469 200.421875 103.960938 202.082031 103.496094 203.226562 C 103.292969 203.730469 103.007812 204.207031 102.84375 204.726562 C 102.523438 205.746094 102.304688 206.800781 101.851562 207.769531 C 101.6875 208.128906 101.496094 208.476562 101.390625 208.855469 C 101.179688 209.597656 101.3125 210.390625 101.503906 211.136719 C 101.691406 211.882812 101.9375 212.628906 101.957031 213.398438 C 101.980469 214.292969 102.457031 215.132812 102.707031 215.996094 L 90.859375 215.996094 C 91.066406 215.375 91.289062 214.8125 91.5625 214.21875 C 91.640625 214.042969 91.722656 213.867188 91.761719 213.675781 C 91.800781 213.5 91.796875 213.316406 91.808594 213.136719 C 91.871094 212.191406 92.355469 211.28125 92.253906 210.339844 C 92.21875 209.992188 92.277344 209.648438 92.160156 209.316406 C 92.042969 208.988281 91.867188 208.683594 91.6875 208.378906 C 91.25 207.621094 90.800781 206.863281 90.234375 206.191406 C 90.082031 206.390625 89.90625 206.589844 89.757812 206.785156 C 89.605469 206.984375 89.453125 207.183594 89.292969 207.375 C 88.644531 208.148438 87.847656 208.804688 86.929688 209.242188 C 86.402344 209.492188 85.839844 209.671875 85.339844 209.972656 C 85.101562 210.117188 84.878906 210.289062 84.625 210.394531 C 84.335938 210.515625 84.015625 210.546875 83.699219 210.558594 C 83.207031 210.570312 82.6875 210.523438 82.273438 210.253906 C 82.113281 210.148438 82.042969 209.957031 81.957031 209.785156 C 81.839844 209.5625 81.726562 209.335938 81.613281 209.113281 C 81.507812 208.90625 81.398438 208.695312 81.308594 208.476562 C 81.046875 207.835938 80.949219 207.140625 80.882812 206.453125 C 80.828125 205.894531 80.792969 205.335938 80.777344 204.773438 C 80.753906 204.0625 81.0625 203.34375 81.117188 202.632812 C 81.164062 202.0625 81.074219 201.472656 81.25 200.929688 C 81.390625 200.496094 81.558594 200.03125 81.792969 199.640625 C 82.28125 198.820312 82.773438 197.996094 83.261719 197.175781 C 83.296875 197.117188 83.332031 197.058594 83.386719 197.011719 C 83.5 196.921875 83.664062 196.921875 83.800781 196.964844 C 83.941406 197.011719 84.058594 197.09375 84.1875 197.160156 C 84.511719 197.328125 84.882812 197.386719 85.191406 197.574219 C 85.238281 197.605469 85.289062 197.636719 85.316406 197.6875 C 85.347656 197.742188 85.347656 197.804688 85.363281 197.863281 C 85.398438 197.992188 85.5 198.085938 85.578125 198.191406 C 85.65625 198.296875 85.710938 198.441406 85.648438 198.554688 C 85.625 198.601562 85.582031 198.640625 85.539062 198.671875 C 85.347656 198.824219 85.128906 198.949219 84.980469 199.144531 C 84.902344 199.246094 84.847656 199.367188 84.773438 199.472656 C 84.382812 200.019531 83.53125 200.140625 83.210938 200.730469 C 83.085938 200.953125 83.0625 201.21875 83.058594 201.472656 C 83.046875 201.992188 83.121094 202.515625 83.273438 203.011719 C 83.390625 203.386719 83.640625 203.675781 83.847656 204.011719 C 83.949219 204.171875 84.050781 204.332031 84.167969 204.480469 C 84.257812 204.597656 84.359375 204.703125 84.441406 204.828125 C 84.542969 204.980469 84.609375 205.152344 84.671875 205.324219 C 84.792969 205.09375 84.859375 204.832031 84.941406 204.582031 C 85.0625 204.214844 85.308594 203.898438 85.597656 203.636719 C 85.882812 203.375 86.214844 203.164062 86.546875 202.957031 C 86.53125 202.445312 86.78125 201.964844 87.011719 201.507812 C 87.15625 201.222656 87.316406 200.941406 87.507812 200.683594 C 88.347656 199.566406 89.839844 198.964844 91.230469 199.183594 C 91.34375 199.203125 91.480469 199.148438 91.5625 199.066406 C 91.875 198.761719 92.1875 198.457031 92.5 198.152344 C 92.605469 198.050781 92.707031 197.953125 92.78125 197.828125 C 92.9375 197.570312 92.9375 197.242188 92.851562 196.953125 C 92.765625 196.664062 92.597656 196.40625 92.433594 196.152344 C 92.324219 195.984375 92.207031 195.816406 92.046875 195.695312 C 91.941406 195.613281 91.820312 195.558594 91.707031 195.492188 C 91.265625 195.230469 90.925781 194.800781 90.441406 194.628906 C 89.78125 194.398438 89.273438 193.761719 89.03125 193.113281 C 88.933594 192.855469 88.894531 192.578125 88.917969 192.304688 C 88.933594 192.113281 88.980469 191.925781 89.027344 191.742188 C 89.089844 191.480469 89.152344 191.21875 89.21875 190.957031 C 89.242188 190.855469 89.265625 190.753906 89.3125 190.664062 C 89.40625 190.472656 89.578125 190.335938 89.746094 190.203125 C 90.113281 189.914062 90.488281 189.628906 90.902344 189.40625 C 91.3125 189.179688 91.769531 189.019531 92.238281 188.996094 C 92.46875 188.988281 92.699219 189.011719 92.929688 189.042969 C 93.21875 189.082031 93.511719 189.136719 93.777344 189.261719 C 94.042969 189.382812 94.265625 189.707031 94.46875 189.917969 Z M 94.46875 189.917969 " fill-opacity="1" fill-rule="nonzero"/></g></svg>