<?xml version="1.0" encoding="utf-8"?>
<!--License: MIT. Made by element-plus: https://github.com/element-plus/element-plus-icons-->
<svg width="32px" height="32px" viewBox="0 0 1024 1024" class="icon" xmlns="http://www.w3.org/2000/svg">
  <path fill="#88838a" d="M512 640a256 256 0 100-512 256 256 0 000 512zm0 64a320 320 0 110-640 320 320 0 010 640z"/>
  <path fill="#88838a" d="M512 640q32 0 32 32v256q0 32-32 32t-32-32V672q0-32 32-32z"/>
  <path fill="#88838a" d="M352 800h320q32 0 32 32t-32 32H352q-32 0-32-32t32-32z"/>
</svg>
